<svg width="17" height="16" viewBox="0 0 17 16" fill="none" xmlns="http://www.w3.org/2000/svg">
<path d="M1.47131 14.5212H14.7451L14.6331 5.96527H1.56726L1.47131 14.5212ZM0.847601 4.50996H15.3528C15.5553 4.50996 15.7259 4.57926 15.8645 4.71786C16.0031 4.85646 16.0724 5.02705 16.0724 5.22962L16.2004 15.2409C16.2004 15.4435 16.1311 15.6167 15.9925 15.7607C15.8539 15.9046 15.6833 15.9766 15.4807 15.9766H0.735654C0.533082 15.9766 0.359831 15.9046 0.215898 15.7607C0.0719661 15.6167 0 15.4435 0 15.2409L0.12794 5.22962C0.12794 5.02705 0.199906 4.85646 0.343838 4.71786C0.48777 4.57926 0.655691 4.50996 0.847601 4.50996ZM11.9944 4.63602C11.9944 4.82793 11.9251 4.99318 11.7865 5.13178C11.6479 5.27038 11.4799 5.33969 11.2827 5.33969C11.0854 5.33969 10.9202 5.27038 10.7869 5.13178C10.6537 4.99318 10.587 4.82793 10.587 4.63602V4.6379C10.587 4.37136 10.5764 4.15279 10.555 3.98221C10.523 3.61971 10.4431 3.27321 10.3151 2.9427C10.1126 2.4416 9.83004 2.06311 9.46754 1.80723C9.07306 1.54069 8.57197 1.40742 7.96425 1.40742C7.35654 1.40742 6.85544 1.54069 6.46096 1.80723C6.09846 2.06311 5.82126 2.4416 5.62935 2.9427C5.51207 3.25188 5.42678 3.59839 5.37347 3.98221V4.04618C5.35215 4.32338 5.34682 4.50996 5.35748 4.60591V4.63602C5.35748 4.82793 5.28818 4.99318 5.14958 5.13178C5.01098 5.27038 4.84305 5.33969 4.64581 5.33969C4.44857 5.33969 4.28332 5.27038 4.15005 5.13178C4.01678 4.99318 3.95014 4.82793 3.95014 4.63602V4.66988C3.93948 4.46731 3.95014 4.19011 3.98213 3.83827C4.02477 3.37982 4.13139 2.91604 4.30198 2.44693C4.6005 1.66863 5.04829 1.07158 5.64534 0.655772C6.27438 0.218645 7.04735 8.10623e-05 7.96425 8.10623e-05C8.88115 8.10623e-05 9.65412 0.218645 10.2832 0.655772C10.8802 1.07158 11.328 1.66863 11.6265 2.44693C11.7758 2.83075 11.8877 3.29453 11.9624 3.83827C11.9837 4.05151 11.9944 4.32871 11.9944 4.66988V4.63602Z" fill="white"/>
</svg>
