<svg width="16" height="16" viewBox="0 0 16 16" fill="none" xmlns="http://www.w3.org/2000/svg">
<path d="M6.4 12.992C5.23733 12.992 4.16 12.6987 3.168 12.112C2.208 11.536 1.44533 10.7573 0.88 9.776C0.293333 8.77334 0 7.68267 0 6.504C0 5.32534 0.293333 4.22934 0.88 3.216C1.44533 2.23467 2.208 1.456 3.168 0.880004C4.16 0.293337 5.23733 4.12246e-06 6.4 4.12246e-06C7.56267 4.12246e-06 8.64 0.293337 9.632 0.880004C10.592 1.456 11.3547 2.23467 11.92 3.216C12.5067 4.22934 12.8 5.32534 12.8 6.504C12.8 7.68267 12.5067 8.77334 11.92 9.776C11.3547 10.7573 10.592 11.536 9.632 12.112C8.64 12.6987 7.56267 12.992 6.4 12.992ZM6.4 11.536C7.296 11.536 8.128 11.3067 8.896 10.848C9.65333 10.4 10.2507 9.79734 10.688 9.04C11.136 8.26134 11.36 7.41334 11.36 6.496C11.36 5.57867 11.136 4.73067 10.688 3.952C10.2507 3.19467 9.65333 2.59734 8.896 2.16C8.128 1.70134 7.296 1.472 6.4 1.472C5.504 1.472 4.672 1.70134 3.904 2.16C3.14667 2.59734 2.54933 3.19467 2.112 3.952C1.664 4.73067 1.44 5.57867 1.44 6.496C1.44 7.41334 1.664 8.26134 2.112 9.04C2.54933 9.79734 3.14667 10.4 3.904 10.848C4.672 11.3067 5.504 11.536 6.4 11.536ZM9.808 11.184C9.66933 11.0453 9.60267 10.88 9.608 10.688C9.61333 10.496 9.69067 10.3307 9.84 10.192C9.98933 10.0533 10.1707 9.98667 10.384 9.992C10.5973 9.99734 10.7787 10.0693 10.928 10.208L15.792 14.816C15.9307 14.9547 15.9973 15.12 15.992 15.312C15.9867 15.504 15.9093 15.6693 15.76 15.808C15.6107 15.9467 15.432 16.0133 15.224 16.008C15.016 16.0027 14.8373 15.9307 14.688 15.792L9.808 11.184Z" fill="white"/>
</svg>
